<?xml version="1.0" encoding="UTF-8"?>
<svg xmlns="http://www.w3.org/2000/svg" version="1.1" viewBox="0 0 2048 2732">
  <!-- Generator: Adobe Illustrator 29.5.1, SVG Export Plug-In . SVG Version: 2.1.0 Build 141)  -->
  <defs>
    <style>
      .st0 {
        fill: none;
        stroke: #e0e0e0;
        stroke-linecap: round;
        stroke-linejoin: round;
        stroke-width: 2px;
      }

      .st1 {
        fill: #fff;
      }
    </style>
  </defs>
  <g id="Layer_1">
    <rect class="st1" x="-44.19" y="-20.26" width="2137.21" height="2769.77"/>
  </g>
  <g id="Layer_4">
    <g>
      <path class="st0" d="M-5.87,9.17C17.9-1.12,44.58-2.45,69.25,5.41"/>
      <path class="st0" d="M11.91,36.1c-5.33,21.97-19.52,40.74-39.2,51.85"/>
      <path class="st0" d="M44.58,33.48c-2.94,25.98-15.26,49.99-34.66,67.51"/>
      <path class="st0" d="M76.45,43.87c-19.56-11.27-42.86-14.07-64.54-7.77C-3.97,20.28-13.05-1.11-13.42-23.52"/>
      <circle class="st0" cx="11.91" cy="36.1" r="64.78"/>
      <path class="st0" d="M201.92,28.48l99.09-42.1"/>
      <path class="st0" d="M219.77-32.76l6.16,14.49c1.45,3.41-.33,7.31-2.82,10.05-5.89,6.45-7.23,17.91-2.6,28.81"/>
      <path class="st0" d="M95.02,244.9c23.76-10.28,50.45-11.62,75.12-3.76"/>
      <path class="st0" d="M112.8,271.83c-5.33,21.97-19.52,40.74-39.2,51.85"/>
      <path class="st0" d="M145.47,269.22c-2.94,25.98-15.26,49.99-34.66,67.51"/>
      <path class="st0" d="M177.33,279.61c-19.56-11.27-42.86-14.07-64.54-7.77-15.88-15.82-24.96-37.21-25.33-59.62"/>
      <path class="st0" d="M58.04,237.38c5.31,25.45,19.69,48.11,40.46,63.75"/>
      <circle class="st0" cx="112.8" cy="271.83" r="64.78"/>
      <path class="st0" d="M280.99,178.44l-9.29,3.95c-8.55,3.63-18.43-.35-22.06-8.9s.35-18.43,8.9-22.06l9.29-3.95"/>
      <path class="st0" d="M355.31,146.87l9.29-3.95c8.55-3.63,12.54-13.51,8.9-22.06-3.63-8.55-13.51-12.54-22.06-8.9l-9.29,3.95"/>
      <path class="st0" d="M302.81,264.22l99.09-42.1"/>
      <path class="st0" d="M320.65,202.97l6.16,14.49c1.45,3.41-.33,7.31-2.82,10.05-5.89,6.45-7.23,17.91-2.6,28.81"/>
      <path class="st0" d="M345.43,192.45l6.16,14.49c1.45,3.41,5.49,4.83,9.19,4.94,8.73.24,17.91,7.23,22.54,18.13"/>
      <path class="st0" d="M336.89,103.52l-74.32,31.57,18.42,43.35c8.72,20.52,32.42,30.09,52.95,21.37,20.52-8.72,30.09-32.42,21.37-52.95l-18.42-43.35Z"/>
      <path class="st0" d="M599.83,79.23l35.6,16.38c4.48,1.86,6.61,7,4.75,11.48-.87,2.08-2.5,3.76-4.57,4.67l-118.06,50.16c-4.49,1.83-9.62-.32-11.46-4.81-.85-2.09-.87-4.43-.05-6.53l12.92-36.99-2.43,1.03c-4.49,1.83-9.62-.32-11.46-4.81-.85-2.09-.87-4.43-.05-6.53l12.92-36.99-1.62.69c-4.28,2.29-9.6.68-11.89-3.6-1.22-2.28-1.38-4.99-.42-7.4l17.57-48.51,47.12,21.03c4.49,1.84,6.64,6.96,4.81,11.46-.98,2.4-2.97,4.24-5.44,5.04l-1.62.69,35.6,16.38c4.48,1.86,6.61,7,4.75,11.48-.87,2.08-2.5,3.76-4.57,4.67l-2.43,1.03Z"/>
      <path class="st0" d="M586.88,161.1l-10.31-24.26"/>
      <path class="st0" d="M744.93,29.24l-5.56-13.09c-4.95-11.66-12.96-14.75-18.63-28.57-6.19-15.03-5.83-36.48,10.73-43.51,10.28-4.37,17.96,4.06,21.93,13.41,7.27,17.1,2.23,35.8,9.28,52.41l4.25,10.01c2.58,6.08-.25,13.09-6.33,15.67s-13.09-.25-15.67-6.33Z"/>
      <path class="st0" d="M842.28,13.85l-5.56-13.09c-4.95-11.66-1.63-19.57-7.63-33.25-6.52-14.89-22.21-29.52-38.77-22.48-10.28,4.37-9.54,15.74-5.57,25.09,7.27,17.1,24.23,26.46,31.28,43.07l4.25,10.01c2.58,6.08,9.6,8.91,15.67,6.33s8.91-9.6,6.33-15.67Z"/>
      <path class="st0" d="M813.27,6.7l22-9.35"/>
      <path class="st0" d="M737.92,12.74l22-9.35"/>
      <circle class="st0" cx="33.56" cy="594.43" r="30.46"/>
      <path class="st0" d="M-18.5,616.55l-11.91-28.03-34.23-13.82,21.83-37.64,26.23,17.22,16.02-6.81"/>
      <path class="st0" d="M185.69,460.48c23.76-10.28,50.45-11.62,75.12-3.76"/>
      <path class="st0" d="M203.47,487.41c-5.33,21.97-19.52,40.74-39.2,51.85"/>
      <path class="st0" d="M236.14,484.79c-2.94,25.98-15.26,49.99-34.66,67.51"/>
      <path class="st0" d="M268,495.18c-19.56-11.27-42.86-14.07-64.54-7.77-15.88-15.82-24.96-37.21-25.33-59.62"/>
      <path class="st0" d="M148.72,452.96c5.31,25.45,19.69,48.11,40.46,63.75"/>
      <circle class="st0" cx="203.47" cy="487.41" r="64.78"/>
      <path class="st0" d="M371.66,394.02l-9.29,3.95c-8.55,3.63-18.43-.35-22.06-8.9s.35-18.43,8.9-22.06l9.29-3.95"/>
      <path class="st0" d="M445.98,362.45l9.29-3.95c8.55-3.63,12.54-13.51,8.9-22.06-3.63-8.55-13.51-12.54-22.06-8.9l-9.29,3.95"/>
      <path class="st0" d="M393.48,479.79l99.09-42.1"/>
      <path class="st0" d="M411.33,418.55l6.16,14.49c1.45,3.41-.33,7.31-2.82,10.05-5.89,6.45-7.23,17.91-2.6,28.81"/>
      <path class="st0" d="M436.1,408.02l6.16,14.49c1.45,3.41,5.49,4.83,9.19,4.94,8.73.24,17.91,7.23,22.54,18.13"/>
      <path class="st0" d="M427.56,319.09l-74.32,31.57,18.42,43.35c8.72,20.52,32.42,30.09,52.95,21.37,20.52-8.72,30.09-32.42,21.37-52.95l-18.42-43.35Z"/>
      <path class="st0" d="M690.51,294.81l35.6,16.38c4.48,1.86,6.61,7,4.75,11.48-.87,2.08-2.5,3.76-4.57,4.67l-118.06,50.16c-4.49,1.83-9.62-.32-11.46-4.81-.85-2.09-.87-4.43-.05-6.53l12.92-36.99-2.43,1.03c-4.49,1.83-9.62-.32-11.46-4.81-.85-2.09-.87-4.43-.05-6.53l12.92-36.99-1.62.69c-4.28,2.29-9.6.68-11.89-3.6-1.22-2.28-1.38-4.99-.42-7.4l17.57-48.51,47.12,21.03c4.49,1.84,6.64,6.96,4.81,11.46-.98,2.4-2.97,4.24-5.44,5.04l-1.62.69,35.6,16.38c4.48,1.86,6.61,7,4.75,11.48-.87,2.08-2.5,3.76-4.57,4.67l-2.43,1.03Z"/>
      <path class="st0" d="M677.56,376.68l-10.31-24.26"/>
      <path class="st0" d="M835.61,244.82l-5.56-13.09c-4.95-11.66-12.96-14.75-18.63-28.57-6.19-15.03-5.83-36.48,10.73-43.51,10.28-4.37,17.96,4.06,21.93,13.41,7.27,17.1,2.23,35.8,9.28,52.41l4.25,10.01c2.58,6.08-.25,13.09-6.33,15.67-6.08,2.58-13.09-.25-15.67-6.33Z"/>
      <path class="st0" d="M932.95,229.43l-5.56-13.09c-4.95-11.66-1.63-19.57-7.63-33.25-6.52-14.89-22.21-29.52-38.77-22.48-10.28,4.37-9.54,15.74-5.57,25.09,7.27,17.1,24.23,26.46,31.28,43.07l4.25,10.01c2.58,6.08,9.6,8.91,15.67,6.33s8.91-9.6,6.33-15.67Z"/>
      <path class="st0" d="M903.94,222.28l22-9.35"/>
      <path class="st0" d="M828.6,228.32l22-9.35"/>
      <circle class="st0" cx="1149.9" cy="120.86" r="30.46"/>
      <circle class="st0" cx="1045.79" cy="165.09" r="30.46"/>
      <circle class="st0" cx="1079.34" cy="32.65" r="8.7"/>
      <path class="st0" d="M1097.84,142.97l-11.91-28.03-34.23-13.82,21.83-37.64,26.23,17.22,16.02-6.81"/>
      <path class="st0" d="M1314.27,9.85c-5.33,21.97-19.52,40.74-39.2,51.85"/>
      <path class="st0" d="M1346.94,7.23c-2.94,25.98-15.26,49.99-34.66,67.51"/>
      <path class="st0" d="M1378.81,17.63c-19.56-11.27-42.86-14.07-64.54-7.77-15.88-15.82-24.96-37.21-25.33-59.62"/>
      <path class="st0" d="M1259.52-24.6c5.31,25.45,19.69,48.11,40.46,63.75"/>
      <circle class="st0" cx="1314.27" cy="9.85" r="64.78"/>
      <path class="st0" d="M1504.28,2.24l99.09-42.1"/>
      <circle class="st0" cx="134.44" cy="830.16" r="30.46"/>
      <circle class="st0" cx="30.33" cy="874.4" r="30.46"/>
      <circle class="st0" cx="63.88" cy="741.96" r="8.7"/>
      <path class="st0" d="M82.39,852.28l-11.91-28.03-34.23-13.82,21.83-37.64,26.23,17.22,16.02-6.81"/>
      <path class="st0" d="M286.58,696.21c23.76-10.28,50.45-11.62,75.12-3.76"/>
      <path class="st0" d="M304.35,723.14c-5.33,21.97-19.52,40.74-39.2,51.85"/>
      <path class="st0" d="M337.02,720.52c-2.94,25.98-15.26,49.99-34.66,67.51"/>
      <path class="st0" d="M368.89,730.92c-19.56-11.27-42.86-14.07-64.54-7.77-15.88-15.82-24.96-37.21-25.33-59.62"/>
      <path class="st0" d="M249.6,688.69c5.31,25.45,19.69,48.11,40.46,63.75"/>
      <circle class="st0" cx="304.35" cy="723.14" r="64.78"/>
      <path class="st0" d="M472.55,629.75l-9.29,3.95c-8.55,3.63-18.43-.35-22.06-8.9s.35-18.43,8.9-22.06l9.29-3.95"/>
      <path class="st0" d="M546.86,598.18l9.29-3.95c8.55-3.63,12.54-13.51,8.9-22.06-3.63-8.55-13.51-12.54-22.06-8.9l-9.29,3.95"/>
      <path class="st0" d="M494.37,715.53l99.09-42.1"/>
      <path class="st0" d="M512.21,654.28l6.16,14.49c1.45,3.41-.33,7.31-2.82,10.05-5.89,6.45-7.23,17.91-2.6,28.81"/>
      <path class="st0" d="M536.98,643.76l6.16,14.49c1.45,3.41,5.49,4.83,9.19,4.94,8.73.24,17.91,7.23,22.54,18.13"/>
      <path class="st0" d="M528.45,554.83l-74.32,31.57,18.42,43.35c8.72,20.52,32.42,30.09,52.95,21.37,20.52-8.72,30.09-32.42,21.37-52.95l-18.42-43.35Z"/>
      <path class="st0" d="M791.39,530.54l35.6,16.38c4.48,1.86,6.61,7,4.75,11.48-.87,2.08-2.5,3.76-4.57,4.67l-118.06,50.16c-4.49,1.83-9.62-.32-11.46-4.81-.85-2.09-.87-4.43-.05-6.53l12.92-36.99-2.43,1.03c-4.49,1.83-9.62-.32-11.46-4.81-.85-2.09-.87-4.43-.05-6.53l12.92-36.99-1.62.69c-4.28,2.29-9.6.68-11.89-3.6-1.22-2.28-1.38-4.99-.42-7.4l17.57-48.51,47.12,21.03c4.49,1.84,6.64,6.96,4.81,11.46-.98,2.4-2.97,4.24-5.44,5.04l-1.62.69,35.6,16.38c4.48,1.86,6.61,7,4.75,11.48-.87,2.08-2.5,3.76-4.57,4.67l-2.43,1.03Z"/>
      <path class="st0" d="M778.44,612.41l-10.31-24.26"/>
      <path class="st0" d="M936.49,480.55l-5.56-13.09c-4.95-11.66-12.96-14.75-18.63-28.57-6.19-15.03-5.83-36.48,10.73-43.51,10.28-4.37,17.96,4.06,21.93,13.41,7.27,17.1,2.23,35.8,9.28,52.41l4.25,10.01c2.58,6.08-.25,13.09-6.33,15.67-6.08,2.58-13.09-.25-15.67-6.33Z"/>
      <path class="st0" d="M1033.83,465.16l-5.56-13.09c-4.95-11.66-1.63-19.57-7.63-33.25-6.52-14.89-22.21-29.52-38.77-22.48-10.28,4.37-9.54,15.74-5.57,25.09,7.27,17.1,24.23,26.46,31.28,43.07l4.25,10.01c2.58,6.08,9.6,8.91,15.67,6.33s8.91-9.6,6.33-15.67Z"/>
      <path class="st0" d="M1004.82,458.01l22-9.35"/>
      <path class="st0" d="M929.48,464.05l22-9.35"/>
      <circle class="st0" cx="1250.78" cy="356.59" r="30.46"/>
      <circle class="st0" cx="1146.67" cy="400.82" r="30.46"/>
      <circle class="st0" cx="1180.22" cy="268.39" r="8.7"/>
      <path class="st0" d="M1198.72,378.7l-11.91-28.03-34.23-13.82,21.83-37.64,26.23,17.22,16.02-6.81"/>
      <path class="st0" d="M1397.38,218.65c23.76-10.28,50.45-11.62,75.12-3.76"/>
      <path class="st0" d="M1415.15,245.59c-5.33,21.97-19.52,40.74-39.2,51.85"/>
      <path class="st0" d="M1447.83,242.97c-2.94,25.98-15.26,49.99-34.66,67.51"/>
      <path class="st0" d="M1479.69,253.36c-19.56-11.27-42.86-14.07-64.54-7.77-15.88-15.82-24.96-37.21-25.33-59.62"/>
      <path class="st0" d="M1360.4,211.13c5.31,25.45,19.69,48.11,40.46,63.75"/>
      <circle class="st0" cx="1415.15" cy="245.59" r="64.78"/>
      <path class="st0" d="M1583.35,152.19l-9.29,3.95c-8.55,3.63-18.43-.35-22.06-8.9-3.63-8.55.35-18.43,8.9-22.06l9.29-3.95"/>
      <path class="st0" d="M1657.67,120.62l9.29-3.95c8.55-3.63,12.54-13.51,8.9-22.06s-13.51-12.54-22.06-8.9l-9.29,3.95"/>
      <path class="st0" d="M1605.17,237.97l99.09-42.1"/>
      <path class="st0" d="M1623.01,176.72l6.16,14.49c1.45,3.41-.33,7.31-2.82,10.05-5.89,6.45-7.23,17.91-2.6,28.81"/>
      <path class="st0" d="M1647.79,166.2l6.16,14.49c1.45,3.41,5.49,4.83,9.19,4.94,8.73.24,17.91,7.23,22.54,18.13"/>
      <path class="st0" d="M1639.25,77.27l-74.32,31.57,18.42,43.35c8.72,20.52,32.42,30.09,52.95,21.37,20.52-8.72,30.09-32.42,21.37-52.95l-18.42-43.35Z"/>
      <path class="st0" d="M1902.19,52.98l35.6,16.38c4.48,1.86,6.61,7,4.75,11.48-.87,2.08-2.5,3.76-4.57,4.67l-118.06,50.16c-4.49,1.83-9.62-.32-11.46-4.81-.85-2.09-.87-4.43-.05-6.53l12.92-36.99-2.43,1.03c-4.49,1.83-9.62-.32-11.46-4.81-.85-2.09-.87-4.43-.05-6.53l12.92-36.99-1.62.69c-4.28,2.29-9.6.68-11.89-3.6-1.22-2.28-1.38-4.99-.42-7.4l17.57-48.51,47.12,21.03c4.49,1.84,6.64,6.96,4.81,11.46-.98,2.4-2.97,4.24-5.44,5.04l-1.62.69,35.6,16.38c4.48,1.86,6.61,7,4.75,11.48-.87,2.08-2.5,3.76-4.57,4.67l-2.43,1.03Z"/>
      <path class="st0" d="M1889.24,134.85l-10.31-24.26"/>
      <path class="st0" d="M2047.29,2.99l-5.56-13.09c-4.95-11.66-12.96-14.75-18.63-28.57-6.19-15.03-5.83-36.48,10.73-43.51,10.28-4.37,17.96,4.06,21.93,13.41,7.27,17.1,2.23,35.8,9.28,52.41l4.25,10.01c2.58,6.08-.25,13.09-6.33,15.67-6.08,2.58-13.09-.25-15.67-6.33Z"/>
      <path class="st0" d="M11.57,1161.03l-5.56-13.09c-4.95-11.66-1.63-19.57-7.63-33.25-6.52-14.89-22.21-29.52-38.77-22.48-10.28,4.37-9.54,15.74-5.57,25.09,7.27,17.1,24.23,26.46,31.28,43.07l4.25,10.01c2.58,6.08,9.6,8.91,15.67,6.33s8.91-9.6,6.33-15.67Z"/>
      <path class="st0" d="M-17.44,1153.88l22-9.35"/>
      <circle class="st0" cx="228.52" cy="1052.46" r="30.46"/>
      <circle class="st0" cx="124.41" cy="1096.69" r="30.46"/>
      <circle class="st0" cx="157.96" cy="964.26" r="8.7"/>
      <path class="st0" d="M176.46,1074.58l-11.91-28.03-34.23-13.82,21.83-37.64,26.23,17.22,16.02-6.81"/>
      <path class="st0" d="M380.65,918.5c23.76-10.28,50.45-11.62,75.12-3.76"/>
      <path class="st0" d="M398.43,945.44c-5.33,21.97-19.52,40.74-39.2,51.85"/>
      <path class="st0" d="M431.1,942.82c-2.94,25.98-15.26,49.99-34.66,67.51"/>
      <path class="st0" d="M462.97,953.21c-19.56-11.27-42.86-14.07-64.54-7.77-15.88-15.82-24.96-37.21-25.33-59.62"/>
      <path class="st0" d="M343.68,910.99c5.31,25.45,19.69,48.11,40.46,63.75"/>
      <circle class="st0" cx="398.43" cy="945.44" r="64.78"/>
      <path class="st0" d="M566.62,852.05l-9.29,3.95c-8.55,3.63-18.43-.35-22.06-8.9s.35-18.43,8.9-22.06l9.29-3.95"/>
      <path class="st0" d="M640.94,820.47l9.29-3.95c8.55-3.63,12.54-13.51,8.9-22.06-3.63-8.55-13.51-12.54-22.06-8.9l-9.29,3.95"/>
      <path class="st0" d="M588.44,937.82l99.09-42.1"/>
      <path class="st0" d="M606.29,876.58l6.16,14.49c1.45,3.41-.33,7.31-2.82,10.05-5.89,6.45-7.23,17.91-2.6,28.81"/>
      <path class="st0" d="M631.06,866.05l6.16,14.49c1.45,3.41,5.49,4.83,9.19,4.94,8.73.24,17.91,7.23,22.54,18.13"/>
      <path class="st0" d="M622.52,777.12l-74.32,31.57,18.42,43.35c8.72,20.52,32.42,30.09,52.95,21.37,20.52-8.72,30.09-32.42,21.37-52.95l-18.42-43.35Z"/>
      <path class="st0" d="M885.47,752.84l35.6,16.38c4.48,1.86,6.61,7,4.75,11.48-.87,2.08-2.5,3.76-4.57,4.67l-118.06,50.16c-4.49,1.83-9.62-.32-11.46-4.81-.85-2.09-.87-4.43-.05-6.53l12.92-36.99-2.43,1.03c-4.49,1.83-9.62-.32-11.46-4.81-.85-2.09-.87-4.43-.05-6.53l12.92-36.99-1.62.69c-4.28,2.29-9.6.68-11.89-3.6-1.22-2.28-1.38-4.99-.42-7.4l17.57-48.51,47.12,21.03c4.49,1.84,6.64,6.96,4.81,11.46-.98,2.4-2.97,4.24-5.44,5.04l-1.62.69,35.6,16.38c4.48,1.86,6.61,7,4.75,11.48-.87,2.08-2.5,3.76-4.57,4.67l-2.43,1.03Z"/>
      <path class="st0" d="M872.52,834.7l-10.31-24.26"/>
      <path class="st0" d="M1030.57,702.84l-5.56-13.09c-4.95-11.66-12.96-14.75-18.63-28.57-6.19-15.03-5.83-36.48,10.73-43.51,10.28-4.37,17.96,4.06,21.93,13.41,7.27,17.1,2.23,35.8,9.28,52.41l4.25,10.01c2.58,6.08-.25,13.09-6.33,15.67s-13.09-.25-15.67-6.33Z"/>
      <path class="st0" d="M1127.91,687.46l-5.56-13.09c-4.95-11.66-1.63-19.57-7.63-33.25-6.52-14.89-22.21-29.52-38.77-22.48-10.28,4.37-9.54,15.74-5.57,25.09,7.27,17.1,24.23,26.46,31.28,43.07l4.25,10.01c2.58,6.08,9.6,8.91,15.67,6.33s8.91-9.6,6.33-15.67Z"/>
      <path class="st0" d="M1098.9,680.3l22-9.35"/>
      <path class="st0" d="M1023.56,686.34l22-9.35"/>
      <circle class="st0" cx="1344.86" cy="578.88" r="30.46"/>
      <circle class="st0" cx="1240.75" cy="623.12" r="30.46"/>
      <circle class="st0" cx="1274.3" cy="490.68" r="8.7"/>
      <path class="st0" d="M1292.8,601l-11.91-28.03-34.23-13.82,21.83-37.64,26.23,17.22,16.02-6.81"/>
      <path class="st0" d="M1491.45,440.95c23.76-10.28,50.45-11.62,75.12-3.76"/>
      <path class="st0" d="M1509.23,467.88c-5.33,21.97-19.52,40.74-39.2,51.85"/>
      <path class="st0" d="M1541.9,465.26c-2.94,25.98-15.26,49.99-34.66,67.51"/>
      <path class="st0" d="M1573.77,475.65c-19.56-11.27-42.86-14.07-64.54-7.77-15.88-15.82-24.96-37.21-25.33-59.62"/>
      <path class="st0" d="M1454.48,433.43c5.31,25.45,19.69,48.11,40.46,63.75"/>
      <circle class="st0" cx="1509.23" cy="467.88" r="64.78"/>
      <path class="st0" d="M1677.43,374.49l-9.29,3.95c-8.55,3.63-18.43-.35-22.06-8.9-3.63-8.55.35-18.43,8.9-22.06l9.29-3.95"/>
      <path class="st0" d="M1751.74,342.92l9.29-3.95c8.55-3.63,12.54-13.51,8.9-22.06s-13.51-12.54-22.06-8.9l-9.29,3.95"/>
      <path class="st0" d="M1699.24,460.26l99.09-42.1"/>
      <path class="st0" d="M1717.09,399.02l6.16,14.49c1.45,3.41-.33,7.31-2.82,10.05-5.89,6.45-7.23,17.91-2.6,28.81"/>
      <path class="st0" d="M1741.86,388.49l6.16,14.49c1.45,3.41,5.49,4.83,9.19,4.94,8.73.24,17.91,7.23,22.54,18.13"/>
      <path class="st0" d="M1733.32,299.56l-74.32,31.57,18.42,43.35c8.72,20.52,32.42,30.09,52.95,21.37,20.52-8.72,30.09-32.42,21.37-52.95l-18.42-43.35Z"/>
      <path class="st0" d="M1996.27,275.28l35.6,16.38c4.48,1.86,6.61,7,4.75,11.48-.87,2.08-2.5,3.76-4.57,4.67l-118.06,50.16c-4.49,1.83-9.62-.32-11.46-4.81-.85-2.09-.87-4.43-.05-6.53l12.92-36.99-2.43,1.03c-4.49,1.83-9.62-.32-11.46-4.81-.85-2.09-.87-4.43-.05-6.53l12.92-36.99-1.62.69c-4.28,2.29-9.6.68-11.89-3.6-1.22-2.28-1.38-4.99-.42-7.4l17.57-48.51,47.12,21.03c4.49,1.84,6.64,6.96,4.81,11.46-.98,2.4-2.97,4.24-5.44,5.04l-1.62.69,35.6,16.38c4.48,1.86,6.61,7,4.75,11.48-.87,2.08-2.5,3.76-4.57,4.67l-2.43,1.03Z"/>
      <path class="st0" d="M1983.32,357.15l-10.31-24.26"/>
      <path class="st0" d="M15.11,1412.15l-5.56-13.09c-4.95-11.66-12.96-14.75-18.63-28.57-6.19-15.03-5.83-36.48,10.73-43.51,10.28-4.37,17.96,4.06,21.93,13.41,7.27,17.1,2.23,35.8,9.28,52.41l4.25,10.01c2.58,6.08-.25,13.09-6.33,15.67s-13.09-.25-15.67-6.33Z"/>
      <path class="st0" d="M112.45,1396.76l-5.56-13.09c-4.95-11.66-1.63-19.57-7.63-33.25-6.52-14.89-22.21-29.52-38.77-22.48-10.28,4.37-9.54,15.74-5.57,25.09,7.27,17.1,24.23,26.46,31.28,43.07l4.25,10.01c2.58,6.08,9.6,8.91,15.67,6.33,6.08-2.58,8.91-9.6,6.33-15.67Z"/>
      <path class="st0" d="M83.44,1389.61l22-9.35"/>
      <path class="st0" d="M8.1,1395.65l22-9.35"/>
      <circle class="st0" cx="329.4" cy="1288.19" r="30.46"/>
      <circle class="st0" cx="225.29" cy="1332.43" r="30.46"/>
      <circle class="st0" cx="258.84" cy="1199.99" r="8.7"/>
      <path class="st0" d="M277.35,1310.31l-11.91-28.03-34.23-13.82,21.83-37.64,26.23,17.22,16.02-6.81"/>
      <path class="st0" d="M481.54,1154.24c23.76-10.28,50.45-11.62,75.12-3.76"/>
      <path class="st0" d="M499.31,1181.17c-5.33,21.97-19.52,40.74-39.2,51.85"/>
      <path class="st0" d="M531.98,1178.55c-2.94,25.98-15.26,49.99-34.66,67.51"/>
      <path class="st0" d="M563.85,1188.94c-19.56-11.27-42.86-14.07-64.54-7.77-15.88-15.82-24.96-37.21-25.33-59.62"/>
      <path class="st0" d="M444.56,1146.72c5.31,25.45,19.69,48.11,40.46,63.75"/>
      <circle class="st0" cx="499.31" cy="1181.17" r="64.78"/>
      <path class="st0" d="M667.51,1087.78l-9.29,3.95c-8.55,3.63-18.43-.35-22.06-8.9-3.63-8.55.35-18.43,8.9-22.06l9.29-3.95"/>
      <path class="st0" d="M741.82,1056.21l9.29-3.95c8.55-3.63,12.54-13.51,8.9-22.06-3.63-8.55-13.51-12.54-22.06-8.9l-9.29,3.95"/>
      <path class="st0" d="M689.33,1173.55l99.09-42.1"/>
      <path class="st0" d="M707.17,1112.31l6.16,14.49c1.45,3.41-.33,7.31-2.82,10.05-5.89,6.45-7.23,17.91-2.6,28.81"/>
      <path class="st0" d="M731.94,1101.78l6.16,14.49c1.45,3.41,5.49,4.83,9.19,4.94,8.73.24,17.91,7.23,22.54,18.13"/>
      <path class="st0" d="M723.41,1012.85l-74.32,31.57,18.42,43.35c8.72,20.52,32.42,30.09,52.95,21.37,20.52-8.72,30.09-32.42,21.37-52.95l-18.42-43.35Z"/>
      <path class="st0" d="M986.35,988.57l35.6,16.38c4.48,1.86,6.61,7,4.75,11.48-.87,2.08-2.5,3.76-4.57,4.67l-118.06,50.16c-4.49,1.83-9.62-.32-11.46-4.81-.85-2.09-.87-4.43-.05-6.53l12.92-36.99-2.43,1.03c-4.49,1.83-9.62-.32-11.46-4.81-.85-2.09-.87-4.43-.05-6.53l12.92-36.99-1.62.69c-4.28,2.29-9.6.68-11.89-3.6-1.22-2.28-1.38-4.99-.42-7.4l17.57-48.51,47.12,21.03c4.49,1.84,6.64,6.96,4.81,11.46-.98,2.4-2.97,4.24-5.44,5.04l-1.62.69,35.6,16.38c4.48,1.86,6.61,7,4.75,11.48-.87,2.08-2.5,3.76-4.57,4.67l-2.43,1.03Z"/>
      <path class="st0" d="M973.4,1070.44l-10.31-24.26"/>
      <path class="st0" d="M1131.45,938.58l-5.56-13.09c-4.95-11.66-12.96-14.75-18.63-28.57-6.19-15.03-5.83-36.48,10.73-43.51,10.28-4.37,17.96,4.06,21.93,13.41,7.27,17.1,2.23,35.8,9.28,52.41l4.25,10.01c2.58,6.08-.25,13.09-6.33,15.67s-13.09-.25-15.67-6.33Z"/>
      <path class="st0" d="M1228.79,923.19l-5.56-13.09c-4.95-11.66-1.63-19.57-7.63-33.25-6.52-14.89-22.21-29.52-38.77-22.48-10.28,4.37-9.54,15.74-5.57,25.09,7.27,17.1,24.23,26.46,31.28,43.07l4.25,10.01c2.58,6.08,9.6,8.91,15.67,6.33s8.91-9.6,6.33-15.67Z"/>
      <path class="st0" d="M1199.78,916.04l22-9.35"/>
      <path class="st0" d="M1124.44,922.08l22-9.35"/>
      <circle class="st0" cx="1445.74" cy="814.62" r="30.46"/>
      <circle class="st0" cx="1341.63" cy="858.85" r="30.46"/>
      <circle class="st0" cx="1375.18" cy="726.42" r="8.7"/>
      <path class="st0" d="M1393.69,836.73l-11.91-28.03-34.23-13.82,21.83-37.64,26.23,17.22,16.02-6.81"/>
      <path class="st0" d="M1592.34,676.68c23.76-10.28,50.45-11.62,75.12-3.76"/>
      <path class="st0" d="M1610.11,703.61c-5.33,21.97-19.52,40.74-39.2,51.85"/>
      <path class="st0" d="M1642.79,700.99c-2.94,25.98-15.26,49.99-34.66,67.51"/>
      <path class="st0" d="M1674.65,711.39c-19.56-11.27-42.86-14.07-64.54-7.77-15.88-15.82-24.96-37.21-25.33-59.62"/>
      <path class="st0" d="M1555.36,669.16c5.31,25.45,19.69,48.11,40.46,63.75"/>
      <circle class="st0" cx="1610.11" cy="703.61" r="64.78"/>
      <path class="st0" d="M1778.31,610.22l-9.29,3.95c-8.55,3.63-18.43-.35-22.06-8.9-3.63-8.55.35-18.43,8.9-22.06l9.29-3.95"/>
      <path class="st0" d="M1852.63,578.65l9.29-3.95c8.55-3.63,12.54-13.51,8.9-22.06-3.63-8.55-13.51-12.54-22.06-8.9l-9.29,3.95"/>
      <path class="st0" d="M1800.13,696l99.09-42.1"/>
      <path class="st0" d="M1817.97,634.75l6.16,14.49c1.45,3.41-.33,7.31-2.82,10.05-5.89,6.45-7.23,17.91-2.6,28.81"/>
      <path class="st0" d="M1842.75,624.23l6.16,14.49c1.45,3.41,5.49,4.83,9.19,4.94,8.73.24,17.91,7.23,22.54,18.13"/>
      <path class="st0" d="M1834.21,535.3l-74.32,31.57,18.42,43.35c8.72,20.52,32.42,30.09,52.95,21.37,20.52-8.72,30.09-32.42,21.37-52.95l-18.42-43.35Z"/>
      <path class="st0" d="M2097.15,511.01l35.6,16.38c4.48,1.86,6.61,7,4.75,11.48-.87,2.08-2.5,3.76-4.57,4.67l-118.06,50.16c-4.49,1.83-9.62-.32-11.46-4.81-.85-2.09-.87-4.43-.05-6.53l12.92-36.99-2.43,1.03c-4.49,1.83-9.62-.32-11.46-4.81-.85-2.09-.87-4.43-.05-6.53l12.92-36.99-1.62.69c-4.28,2.29-9.6.68-11.89-3.6-1.22-2.28-1.38-4.99-.42-7.4l17.57-48.51,47.12,21.03c4.49,1.84,6.64,6.96,4.81,11.46-.98,2.4-2.97,4.24-5.44,5.04l-1.62.69,35.6,16.38c4.48,1.86,6.61,7,4.75,11.48-.87,2.08-2.5,3.76-4.57,4.67l-2.43,1.03Z"/>
      <path class="st0" d="M-41.02,1674.36l35.6,16.38c4.48,1.86,6.61,7,4.75,11.48-.87,2.08-2.5,3.76-4.57,4.67l-118.06,50.16c-4.49,1.83-9.62-.32-11.46-4.81-.85-2.09-.87-4.43-.05-6.53l12.92-36.99-2.43,1.03c-4.49,1.83-9.62-.32-11.46-4.81-.85-2.09-.87-4.43-.05-6.53l12.92-36.99-1.62.69c-4.28,2.29-9.6.68-11.89-3.6-1.22-2.28-1.38-4.99-.42-7.4l17.57-48.51,47.12,21.03c4.49,1.84,6.64,6.96,4.81,11.46-.98,2.4-2.97,4.24-5.44,5.04l-1.62.69,35.6,16.38c4.48,1.86,6.61,7,4.75,11.48-.87,2.08-2.5,3.76-4.57,4.67l-2.43,1.03Z"/>
      <path class="st0" d="M104.08,1624.37l-5.56-13.09c-4.95-11.66-12.96-14.75-18.63-28.57-6.19-15.03-5.83-36.48,10.73-43.51,10.28-4.37,17.96,4.06,21.93,13.41,7.27,17.1,2.23,35.8,9.28,52.41l4.25,10.01c2.58,6.08-.25,13.09-6.33,15.67-6.08,2.58-13.09-.25-15.67-6.33Z"/>
      <path class="st0" d="M201.43,1608.98l-5.56-13.09c-4.95-11.66-1.63-19.57-7.63-33.25-6.52-14.89-22.21-29.52-38.77-22.48-10.28,4.37-9.54,15.74-5.57,25.09,7.27,17.1,24.23,26.46,31.28,43.07l4.25,10.01c2.58,6.08,9.6,8.91,15.67,6.33,6.08-2.58,8.91-9.6,6.33-15.67Z"/>
      <path class="st0" d="M172.42,1601.83l22-9.35"/>
      <path class="st0" d="M97.07,1607.87l22-9.35"/>
      <circle class="st0" cx="418.38" cy="1500.41" r="30.46"/>
      <circle class="st0" cx="314.26" cy="1544.64" r="30.46"/>
      <circle class="st0" cx="347.81" cy="1412.21" r="8.7"/>
      <path class="st0" d="M366.32,1522.52l-11.91-28.03-34.23-13.82,21.83-37.64,26.23,17.22,16.02-6.81"/>
      <path class="st0" d="M570.51,1366.45c23.76-10.28,50.45-11.62,75.12-3.76"/>
      <path class="st0" d="M588.29,1393.39c-5.33,21.97-19.52,40.74-39.2,51.85"/>
      <path class="st0" d="M620.96,1390.77c-2.94,25.98-15.26,49.99-34.66,67.51"/>
      <path class="st0" d="M652.82,1401.16c-19.56-11.27-42.86-14.07-64.54-7.77-15.88-15.82-24.96-37.21-25.33-59.62"/>
      <path class="st0" d="M533.53,1358.94c5.31,25.45,19.69,48.11,40.46,63.75"/>
      <circle class="st0" cx="588.29" cy="1393.39" r="64.78"/>
      <path class="st0" d="M756.48,1300l-9.29,3.95c-8.55,3.63-18.43-.35-22.06-8.9-3.63-8.55.35-18.43,8.9-22.06l9.29-3.95"/>
      <path class="st0" d="M830.8,1268.42l9.29-3.95c8.55-3.63,12.54-13.51,8.9-22.06s-13.51-12.54-22.06-8.9l-9.29,3.95"/>
      <path class="st0" d="M778.3,1385.77l99.09-42.1"/>
      <path class="st0" d="M796.14,1324.52l6.16,14.49c1.45,3.41-.33,7.31-2.82,10.05-5.89,6.45-7.23,17.91-2.6,28.81"/>
      <path class="st0" d="M820.92,1314l6.16,14.49c1.45,3.41,5.49,4.83,9.19,4.94,8.73.24,17.91,7.23,22.54,18.13"/>
      <path class="st0" d="M812.38,1225.07l-74.32,31.57,18.42,43.35c8.72,20.52,32.42,30.09,52.95,21.37,20.52-8.72,30.09-32.42,21.37-52.95l-18.42-43.35Z"/>
      <path class="st0" d="M1075.32,1200.79l35.6,16.38c4.48,1.86,6.61,7,4.75,11.48-.87,2.08-2.5,3.76-4.57,4.67l-118.06,50.16c-4.49,1.83-9.62-.32-11.46-4.81-.85-2.09-.87-4.43-.05-6.53l12.92-36.99-2.43,1.03c-4.49,1.83-9.62-.32-11.46-4.81-.85-2.09-.87-4.43-.05-6.53l12.92-36.99-1.62.69c-4.28,2.29-9.6.68-11.89-3.6-1.22-2.28-1.38-4.99-.42-7.4l17.57-48.51,47.12,21.03c4.49,1.84,6.64,6.96,4.81,11.46-.98,2.4-2.97,4.24-5.44,5.04l-1.62.69,35.6,16.38c4.48,1.86,6.61,7,4.75,11.48-.87,2.08-2.5,3.76-4.57,4.67l-2.43,1.03Z"/>
      <path class="st0" d="M1062.38,1282.65l-10.31-24.26"/>
      <path class="st0" d="M1220.42,1150.79l-5.56-13.09c-4.95-11.66-12.96-14.75-18.63-28.57-6.19-15.03-5.83-36.48,10.73-43.51,10.28-4.37,17.96,4.06,21.93,13.41,7.27,17.1,2.23,35.8,9.28,52.41l4.25,10.01c2.58,6.08-.25,13.09-6.33,15.67-6.08,2.58-13.09-.25-15.67-6.33Z"/>
      <path class="st0" d="M1317.77,1135.41l-5.56-13.09c-4.95-11.66-1.63-19.57-7.63-33.25-6.52-14.89-22.21-29.52-38.77-22.48-10.28,4.37-9.54,15.74-5.57,25.09,7.27,17.1,24.23,26.46,31.28,43.07l4.25,10.01c2.58,6.08,9.6,8.91,15.67,6.33s8.91-9.6,6.33-15.67Z"/>
      <path class="st0" d="M1288.76,1128.25l22-9.35"/>
      <path class="st0" d="M1213.41,1134.29l22-9.35"/>
      <circle class="st0" cx="1534.72" cy="1026.83" r="30.46"/>
      <circle class="st0" cx="1430.6" cy="1071.07" r="30.46"/>
      <circle class="st0" cx="1464.15" cy="938.63" r="8.7"/>
      <path class="st0" d="M1482.66,1048.95l-11.91-28.03-34.23-13.82,21.83-37.64,26.23,17.22,16.02-6.81"/>
      <path class="st0" d="M1681.31,888.9c23.76-10.28,50.45-11.62,75.12-3.76"/>
      <path class="st0" d="M1699.09,915.83c-5.33,21.97-19.52,40.74-39.2,51.85"/>
      <path class="st0" d="M1731.76,913.21c-2.94,25.98-15.26,49.99-34.66,67.51"/>
      <path class="st0" d="M1763.62,923.6c-19.56-11.27-42.86-14.07-64.54-7.77-15.88-15.82-24.96-37.21-25.33-59.62"/>
      <path class="st0" d="M1644.33,881.38c5.31,25.45,19.69,48.11,40.46,63.75"/>
      <circle class="st0" cx="1699.09" cy="915.83" r="64.78"/>
      <path class="st0" d="M1867.28,822.44l-9.29,3.95c-8.55,3.63-18.43-.35-22.06-8.9s.35-18.43,8.9-22.06l9.29-3.95"/>
      <path class="st0" d="M1941.6,790.86l9.29-3.95c8.55-3.63,12.54-13.51,8.9-22.06-3.63-8.55-13.51-12.54-22.06-8.9l-9.29,3.95"/>
      <path class="st0" d="M1889.1,908.21l99.09-42.1"/>
      <path class="st0" d="M1906.95,846.97l6.16,14.49c1.45,3.41-.33,7.31-2.82,10.05-5.89,6.45-7.23,17.91-2.6,28.81"/>
      <path class="st0" d="M1931.72,836.44l6.16,14.49c1.45,3.41,5.49,4.83,9.19,4.94,8.73.24,17.91,7.23,22.54,18.13"/>
      <path class="st0" d="M1923.18,747.51l-74.32,31.57,18.42,43.35c8.72,20.52,32.42,30.09,52.95,21.37,20.52-8.72,30.09-32.42,21.37-52.95l-18.42-43.35Z"/>
      <path class="st0" d="M59.87,1910.1l35.6,16.38c4.48,1.86,6.61,7,4.75,11.48-.87,2.08-2.5,3.76-4.57,4.67l-118.06,50.16c-4.49,1.83-9.62-.32-11.46-4.81-.85-2.09-.87-4.43-.05-6.53l12.92-36.99-2.43,1.03c-4.49,1.83-9.62-.32-11.46-4.81-.85-2.09-.87-4.43-.05-6.53l12.92-36.99-1.62.69c-4.28,2.29-9.6.68-11.89-3.6-1.22-2.28-1.38-4.99-.42-7.4l17.57-48.51,47.12,21.03c4.49,1.84,6.64,6.96,4.81,11.46-.98,2.4-2.97,4.24-5.44,5.04l-1.62.69,35.6,16.38c4.48,1.86,6.61,7,4.75,11.48-.87,2.08-2.5,3.76-4.57,4.67l-2.43,1.03Z"/>
      <path class="st0" d="M46.92,1991.96l-10.31-24.26"/>
      <path class="st0" d="M204.97,1860.1l-5.56-13.09c-4.95-11.66-12.96-14.75-18.63-28.57-6.19-15.03-5.83-36.48,10.73-43.51,10.28-4.37,17.96,4.06,21.93,13.41,7.27,17.1,2.23,35.8,9.28,52.41l4.25,10.01c2.58,6.08-.25,13.09-6.33,15.67s-13.09-.25-15.67-6.33Z"/>
      <path class="st0" d="M302.31,1844.71l-5.56-13.09c-4.95-11.66-1.63-19.57-7.63-33.25-6.52-14.89-22.21-29.52-38.77-22.48-10.28,4.37-9.54,15.74-5.57,25.09,7.27,17.1,24.23,26.46,31.28,43.07l4.25,10.01c2.58,6.08,9.6,8.91,15.67,6.33s8.91-9.6,6.33-15.67Z"/>
      <path class="st0" d="M273.3,1837.56l22-9.35"/>
      <path class="st0" d="M197.96,1843.6l22-9.35"/>
      <circle class="st0" cx="519.26" cy="1736.14" r="30.46"/>
      <circle class="st0" cx="415.14" cy="1780.37" r="30.46"/>
      <circle class="st0" cx="448.7" cy="1647.94" r="8.7"/>
      <path class="st0" d="M467.2,1758.26l-11.91-28.03-34.23-13.82,21.83-37.64,26.23,17.22,16.02-6.81"/>
      <path class="st0" d="M671.39,1602.19c23.76-10.28,50.45-11.62,75.12-3.76"/>
      <path class="st0" d="M689.17,1629.12c-5.33,21.97-19.52,40.74-39.2,51.85"/>
      <path class="st0" d="M721.84,1626.5c-2.94,25.98-15.26,49.99-34.66,67.51"/>
      <path class="st0" d="M753.7,1636.89c-19.56-11.27-42.86-14.07-64.54-7.77-15.88-15.82-24.96-37.21-25.33-59.62"/>
      <path class="st0" d="M634.41,1594.67c5.31,25.45,19.69,48.11,40.46,63.75"/>
      <circle class="st0" cx="689.17" cy="1629.12" r="64.78"/>
      <path class="st0" d="M857.36,1535.73l-9.29,3.95c-8.55,3.63-18.43-.35-22.06-8.9-3.63-8.55.35-18.43,8.9-22.06l9.29-3.95"/>
      <path class="st0" d="M931.68,1504.16l9.29-3.95c8.55-3.63,12.54-13.51,8.9-22.06-3.63-8.55-13.51-12.54-22.06-8.9l-9.29,3.95"/>
      <path class="st0" d="M879.18,1621.5l99.09-42.1"/>
      <path class="st0" d="M897.03,1560.26l6.16,14.49c1.45,3.41-.33,7.31-2.82,10.05-5.89,6.45-7.23,17.91-2.6,28.81"/>
      <path class="st0" d="M921.8,1549.73l6.16,14.49c1.45,3.41,5.49,4.83,9.19,4.94,8.73.24,17.91,7.23,22.54,18.13"/>
      <path class="st0" d="M913.26,1460.8l-74.32,31.57,18.42,43.35c8.72,20.52,32.42,30.09,52.95,21.37,20.52-8.72,30.09-32.42,21.37-52.95l-18.42-43.35Z"/>
      <path class="st0" d="M1176.21,1436.52l35.6,16.38c4.48,1.86,6.61,7,4.75,11.48-.87,2.08-2.5,3.76-4.57,4.67l-118.06,50.16c-4.49,1.83-9.62-.32-11.46-4.81-.85-2.09-.87-4.43-.05-6.53l12.92-36.99-2.43,1.03c-4.49,1.83-9.62-.32-11.46-4.81-.85-2.09-.87-4.43-.05-6.53l12.92-36.99-1.62.69c-4.28,2.29-9.6.68-11.89-3.6-1.22-2.28-1.38-4.99-.42-7.4l17.57-48.51,47.12,21.03c4.49,1.84,6.64,6.96,4.81,11.46-.98,2.4-2.97,4.24-5.44,5.04l-1.62.69,35.6,16.38c4.48,1.86,6.61,7,4.75,11.48-.87,2.08-2.5,3.76-4.57,4.67l-2.43,1.03Z"/>
      <path class="st0" d="M1163.26,1518.38l-10.31-24.26"/>
      <path class="st0" d="M1321.31,1386.52l-5.56-13.09c-4.95-11.66-12.96-14.75-18.63-28.57-6.19-15.03-5.83-36.48,10.73-43.51,10.28-4.37,17.96,4.06,21.93,13.41,7.27,17.1,2.23,35.8,9.28,52.41l4.25,10.01c2.58,6.08-.25,13.09-6.33,15.67-6.08,2.58-13.09-.25-15.67-6.33Z"/>
      <path class="st0" d="M1418.65,1371.14l-5.56-13.09c-4.95-11.66-1.63-19.57-7.63-33.25-6.52-14.89-22.21-29.52-38.77-22.48-10.28,4.37-9.54,15.74-5.57,25.09,7.27,17.1,24.23,26.46,31.28,43.07l4.25,10.01c2.58,6.08,9.6,8.91,15.67,6.33,6.08-2.58,8.91-9.6,6.33-15.67Z"/>
      <path class="st0" d="M1389.64,1363.98l22-9.35"/>
      <path class="st0" d="M1314.3,1370.03l22-9.35"/>
      <circle class="st0" cx="1635.6" cy="1262.57" r="30.46"/>
      <circle class="st0" cx="1531.48" cy="1306.8" r="30.46"/>
      <circle class="st0" cx="1565.04" cy="1174.36" r="8.7"/>
      <path class="st0" d="M1583.54,1284.68l-11.91-28.03-34.23-13.82,21.83-37.64,26.23,17.22,16.02-6.81"/>
      <path class="st0" d="M1782.19,1124.63c23.76-10.28,50.45-11.62,75.12-3.76"/>
      <path class="st0" d="M1799.97,1151.56c-5.33,21.97-19.52,40.74-39.2,51.85"/>
      <path class="st0" d="M1832.64,1148.94c-2.94,25.98-15.26,49.99-34.66,67.51"/>
      <path class="st0" d="M1864.51,1159.34c-19.56-11.27-42.86-14.07-64.54-7.77-15.88-15.82-24.96-37.21-25.33-59.62"/>
      <path class="st0" d="M1745.22,1117.11c5.31,25.45,19.69,48.11,40.46,63.75"/>
      <circle class="st0" cx="1799.97" cy="1151.56" r="64.78"/>
      <path class="st0" d="M1968.16,1058.17l-9.29,3.95c-8.55,3.63-18.43-.35-22.06-8.9s.35-18.43,8.9-22.06l9.29-3.95"/>
      <path class="st0" d="M2042.48,1026.6l9.29-3.95c8.55-3.63,12.54-13.51,8.9-22.06-3.63-8.55-13.51-12.54-22.06-8.9l-9.29,3.95"/>
      <path class="st0" d="M1989.98,1143.95l99.09-42.1"/>
      <path class="st0" d="M2007.83,1082.7l6.16,14.49c1.45,3.41-.33,7.31-2.82,10.05-5.89,6.45-7.23,17.91-2.6,28.81"/>
      <path class="st0" d="M2032.6,1072.18l6.16,14.49c1.45,3.41,5.49,4.83,9.19,4.94,8.73.24,17.91,7.23,22.54,18.13"/>
      <path class="st0" d="M2024.06,983.25l-74.32,31.57,18.42,43.35c8.72,20.52,32.42,30.09,52.95,21.37,20.52-8.72,30.09-32.42,21.37-52.95l-18.42-43.35Z"/>
      <path class="st0" d="M153.94,2132.39l35.6,16.38c4.48,1.86,6.61,7,4.75,11.48-.87,2.08-2.5,3.76-4.57,4.67l-118.06,50.16c-4.49,1.83-9.62-.32-11.46-4.81-.85-2.09-.87-4.43-.05-6.53l12.92-36.99-2.43,1.03c-4.49,1.83-9.62-.32-11.46-4.81-.85-2.09-.87-4.43-.05-6.53l12.92-36.99-1.62.69c-4.28,2.29-9.6.68-11.89-3.6-1.22-2.28-1.38-4.99-.42-7.4l17.57-48.51,47.12,21.03c4.49,1.84,6.64,6.96,4.81,11.46-.98,2.4-2.97,4.24-5.44,5.04l-1.62.69,35.6,16.38c4.48,1.86,6.61,7,4.75,11.48-.87,2.08-2.5,3.76-4.57,4.67l-2.43,1.03Z"/>
      <path class="st0" d="M141,2214.26l-10.31-24.26"/>
      <path class="st0" d="M299.04,2082.4l-5.56-13.09c-4.95-11.66-12.96-14.75-18.63-28.57-6.19-15.03-5.83-36.48,10.73-43.51,10.28-4.37,17.96,4.06,21.93,13.41,7.27,17.1,2.23,35.8,9.28,52.41l4.25,10.01c2.58,6.08-.25,13.09-6.33,15.67-6.08,2.58-13.09-.25-15.67-6.33Z"/>
      <path class="st0" d="M396.39,2067.01l-5.56-13.09c-4.95-11.66-1.63-19.57-7.63-33.25-6.52-14.89-22.21-29.52-38.77-22.48-10.28,4.37-9.54,15.74-5.57,25.09,7.27,17.1,24.23,26.46,31.28,43.07l4.25,10.01c2.58,6.08,9.6,8.91,15.67,6.33,6.08-2.58,8.91-9.6,6.33-15.67Z"/>
      <path class="st0" d="M367.38,2059.86l22-9.35"/>
      <path class="st0" d="M292.03,2065.9l22-9.35"/>
      <circle class="st0" cx="613.34" cy="1958.44" r="30.46"/>
      <circle class="st0" cx="509.22" cy="2002.67" r="30.46"/>
      <circle class="st0" cx="542.77" cy="1870.24" r="8.7"/>
      <path class="st0" d="M561.28,1980.55l-11.91-28.03-34.23-13.82,21.83-37.64,26.23,17.22,16.02-6.81"/>
      <path class="st0" d="M765.47,1824.48c23.76-10.28,50.45-11.62,75.12-3.76"/>
      <path class="st0" d="M783.25,1851.41c-5.33,21.97-19.52,40.74-39.2,51.85"/>
      <path class="st0" d="M815.92,1848.8c-2.94,25.98-15.26,49.99-34.66,67.51"/>
      <path class="st0" d="M847.78,1859.19c-19.56-11.27-42.86-14.07-64.54-7.77-15.88-15.82-24.96-37.21-25.33-59.62"/>
      <path class="st0" d="M728.49,1816.96c5.31,25.45,19.69,48.11,40.46,63.75"/>
      <circle class="st0" cx="783.25" cy="1851.41" r="64.78"/>
      <path class="st0" d="M951.44,1758.02l-9.29,3.95c-8.55,3.63-18.43-.35-22.06-8.9-3.63-8.55.35-18.43,8.9-22.06l9.29-3.95"/>
      <path class="st0" d="M1025.76,1726.45l9.29-3.95c8.55-3.63,12.54-13.51,8.9-22.06-3.63-8.55-13.51-12.54-22.06-8.9l-9.29,3.95"/>
      <path class="st0" d="M973.26,1843.8l99.09-42.1"/>
      <path class="st0" d="M991.11,1782.55l6.16,14.49c1.45,3.41-.33,7.31-2.82,10.05-5.89,6.45-7.23,17.91-2.6,28.81"/>
      <path class="st0" d="M1015.88,1772.03l6.16,14.49c1.45,3.41,5.49,4.83,9.19,4.94,8.73.24,17.91,7.23,22.54,18.13"/>
      <path class="st0" d="M1007.34,1683.1l-74.32,31.57,18.42,43.35c8.72,20.52,32.42,30.09,52.95,21.37,20.52-8.72,30.09-32.42,21.37-52.95l-18.42-43.35Z"/>
      <path class="st0" d="M1270.28,1658.81l35.6,16.38c4.48,1.86,6.61,7,4.75,11.48-.87,2.08-2.5,3.76-4.57,4.67l-118.06,50.16c-4.49,1.83-9.62-.32-11.46-4.81-.85-2.09-.87-4.43-.05-6.53l12.92-36.99-2.43,1.03c-4.49,1.83-9.62-.32-11.46-4.81-.85-2.09-.87-4.43-.05-6.53l12.92-36.99-1.62.69c-4.28,2.29-9.6.68-11.89-3.6-1.22-2.28-1.38-4.99-.42-7.4l17.57-48.51,47.12,21.03c4.49,1.84,6.64,6.96,4.81,11.46-.98,2.4-2.97,4.24-5.44,5.04l-1.62.69,35.6,16.38c4.48,1.86,6.61,7,4.75,11.48-.87,2.08-2.5,3.76-4.57,4.67l-2.43,1.03Z"/>
      <path class="st0" d="M1257.34,1740.68l-10.31-24.26"/>
      <path class="st0" d="M1415.38,1608.82l-5.56-13.09c-4.95-11.66-12.96-14.75-18.63-28.57-6.19-15.03-5.83-36.48,10.73-43.51,10.28-4.37,17.96,4.06,21.93,13.41,7.27,17.1,2.23,35.8,9.28,52.41l4.25,10.01c2.58,6.08-.25,13.09-6.33,15.67s-13.09-.25-15.67-6.33Z"/>
      <path class="st0" d="M1512.73,1593.43l-5.56-13.09c-4.95-11.66-1.63-19.57-7.63-33.25-6.52-14.89-22.21-29.52-38.77-22.48-10.28,4.37-9.54,15.74-5.57,25.09,7.27,17.1,24.23,26.46,31.28,43.07l4.25,10.01c2.58,6.08,9.6,8.91,15.67,6.33,6.08-2.58,8.91-9.6,6.33-15.67Z"/>
      <path class="st0" d="M1483.72,1586.28l22-9.35"/>
      <path class="st0" d="M1408.37,1592.32l22-9.35"/>
      <circle class="st0" cx="1729.68" cy="1484.86" r="30.46"/>
      <circle class="st0" cx="1625.56" cy="1529.09" r="30.46"/>
      <circle class="st0" cx="1659.11" cy="1396.66" r="8.7"/>
      <path class="st0" d="M1677.62,1506.98l-11.91-28.03-34.23-13.82,21.83-37.64,26.23,17.22,16.02-6.81"/>
      <path class="st0" d="M1876.27,1346.92c23.76-10.28,50.45-11.62,75.12-3.76"/>
      <path class="st0" d="M1894.05,1373.86c-5.33,21.97-19.52,40.74-39.2,51.85"/>
      <path class="st0" d="M1926.72,1371.24c-2.94,25.98-15.26,49.99-34.66,67.51"/>
      <path class="st0" d="M1958.58,1381.63c-19.56-11.27-42.86-14.07-64.54-7.77-15.88-15.82-24.96-37.21-25.33-59.62"/>
      <path class="st0" d="M1839.29,1339.41c5.31,25.45,19.69,48.11,40.46,63.75"/>
      <circle class="st0" cx="1894.05" cy="1373.86" r="64.78"/>
      <path class="st0" d="M2062.24,1280.47l-9.29,3.95c-8.55,3.63-18.43-.35-22.06-8.9s.35-18.43,8.9-22.06l9.29-3.95"/>
      <path class="st0" d="M2118.14,1205.54l-74.32,31.57,18.42,43.35c8.72,20.52,32.42,30.09,52.95,21.37,20.52-8.72,30.09-32.42,21.37-52.95l-18.42-43.35Z"/>
      <path class="st0" d="M10.3,2435.76l9.29-3.95c8.55-3.63,12.54-13.51,8.9-22.06s-13.51-12.54-22.06-8.9l-9.29,3.95"/>
      <path class="st0" d="M-42.2,2553.11l99.09-42.1"/>
      <path class="st0" d="M.42,2481.34l6.16,14.49c1.45,3.41,5.49,4.83,9.19,4.94,8.73.24,17.91,7.23,22.54,18.13"/>
      <path class="st0" d="M-8.12,2392.41l-74.32,31.57,18.42,43.35c8.72,20.52,32.42,30.09,52.95,21.37,20.52-8.72,30.09-32.42,21.37-52.95l-18.42-43.35Z"/>
      <path class="st0" d="M254.83,2368.12l35.6,16.38c4.48,1.86,6.61,7,4.75,11.48-.87,2.08-2.5,3.76-4.57,4.67l-118.06,50.16c-4.49,1.83-9.62-.32-11.46-4.81-.85-2.09-.87-4.43-.05-6.53l12.92-36.99-2.43,1.03c-4.49,1.83-9.62-.32-11.46-4.81-.85-2.09-.87-4.43-.05-6.53l12.92-36.99-1.62.69c-4.28,2.29-9.6.68-11.89-3.6-1.22-2.28-1.38-4.99-.42-7.4l17.57-48.51,47.12,21.03c4.49,1.84,6.64,6.96,4.81,11.46-.98,2.4-2.97,4.24-5.44,5.04l-1.62.69,35.6,16.38c4.48,1.86,6.61,7,4.75,11.48-.87,2.08-2.5,3.76-4.57,4.67l-2.43,1.03Z"/>
      <path class="st0" d="M241.88,2449.99l-10.31-24.26"/>
      <path class="st0" d="M399.93,2318.13l-5.56-13.09c-4.95-11.66-12.96-14.75-18.63-28.57-6.19-15.03-5.83-36.48,10.73-43.51,10.28-4.37,17.96,4.06,21.93,13.41,7.27,17.1,2.23,35.8,9.28,52.41l4.25,10.01c2.58,6.08-.25,13.09-6.33,15.67-6.08,2.58-13.09-.25-15.67-6.33Z"/>
      <path class="st0" d="M497.27,2302.74l-5.56-13.09c-4.95-11.66-1.63-19.57-7.63-33.25-6.52-14.89-22.21-29.52-38.77-22.48-10.28,4.37-9.54,15.74-5.57,25.09,7.27,17.1,24.23,26.46,31.28,43.07l4.25,10.01c2.58,6.08,9.6,8.91,15.67,6.33,6.08-2.58,8.91-9.6,6.33-15.67Z"/>
      <path class="st0" d="M468.26,2295.59l22-9.35"/>
      <path class="st0" d="M392.92,2301.63l22-9.35"/>
      <circle class="st0" cx="714.22" cy="2194.17" r="30.46"/>
      <circle class="st0" cx="610.11" cy="2238.4" r="30.46"/>
      <circle class="st0" cx="643.66" cy="2105.97" r="8.7"/>
      <path class="st0" d="M662.16,2216.29l-11.91-28.03-34.23-13.82,21.83-37.64,26.23,17.22,16.02-6.81"/>
      <path class="st0" d="M866.35,2060.21c23.76-10.28,50.45-11.62,75.12-3.76"/>
      <path class="st0" d="M884.13,2087.15c-5.33,21.97-19.52,40.74-39.2,51.85"/>
      <path class="st0" d="M916.8,2084.53c-2.94,25.98-15.26,49.99-34.66,67.51"/>
      <path class="st0" d="M948.66,2094.92c-19.56-11.27-42.86-14.07-64.54-7.77-15.88-15.82-24.96-37.21-25.33-59.62"/>
      <path class="st0" d="M829.38,2052.7c5.31,25.45,19.69,48.11,40.46,63.75"/>
      <circle class="st0" cx="884.13" cy="2087.15" r="64.78"/>
      <path class="st0" d="M1052.32,1993.76l-9.29,3.95c-8.55,3.63-18.43-.35-22.06-8.9-3.63-8.55.35-18.43,8.9-22.06l9.29-3.95"/>
      <path class="st0" d="M1126.64,1962.18l9.29-3.95c8.55-3.63,12.54-13.51,8.9-22.06s-13.51-12.54-22.06-8.9l-9.29,3.95"/>
      <path class="st0" d="M1074.14,2079.53l99.09-42.1"/>
      <path class="st0" d="M1091.99,2018.29l6.16,14.49c1.45,3.41-.33,7.31-2.82,10.05-5.89,6.45-7.23,17.91-2.6,28.81"/>
      <path class="st0" d="M1116.76,2007.76l6.16,14.49c1.45,3.41,5.49,4.83,9.19,4.94,8.73.24,17.91,7.23,22.54,18.13"/>
      <path class="st0" d="M1108.22,1918.83l-74.32,31.57,18.42,43.35c8.72,20.52,32.42,30.09,52.95,21.37,20.52-8.72,30.09-32.42,21.37-52.95l-18.42-43.35Z"/>
      <path class="st0" d="M1371.17,1894.55l35.6,16.38c4.48,1.86,6.61,7,4.75,11.48-.87,2.08-2.5,3.76-4.57,4.67l-118.06,50.16c-4.49,1.83-9.62-.32-11.46-4.81-.85-2.09-.87-4.43-.05-6.53l12.92-36.99-2.43,1.03c-4.49,1.83-9.62-.32-11.46-4.81-.85-2.09-.87-4.43-.05-6.53l12.92-36.99-1.62.69c-4.28,2.29-9.6.68-11.89-3.6-1.22-2.28-1.38-4.99-.42-7.4l17.57-48.51,47.12,21.03c4.49,1.84,6.64,6.96,4.81,11.46-.98,2.4-2.97,4.24-5.44,5.04l-1.62.69,35.6,16.38c4.48,1.86,6.61,7,4.75,11.48-.87,2.08-2.5,3.76-4.57,4.67l-2.43,1.03Z"/>
      <path class="st0" d="M1358.22,1976.41l-10.31-24.26"/>
      <path class="st0" d="M1516.27,1844.55l-5.56-13.09c-4.95-11.66-12.96-14.75-18.63-28.57-6.19-15.03-5.83-36.48,10.73-43.51,10.28-4.37,17.96,4.06,21.93,13.41,7.27,17.1,2.23,35.8,9.28,52.41l4.25,10.01c2.58,6.08-.25,13.09-6.33,15.67-6.08,2.58-13.09-.25-15.67-6.33Z"/>
      <path class="st0" d="M1613.61,1829.17l-5.56-13.09c-4.95-11.66-1.63-19.57-7.63-33.25-6.52-14.89-22.21-29.52-38.77-22.48-10.28,4.37-9.54,15.74-5.57,25.09,7.27,17.1,24.23,26.46,31.28,43.07l4.25,10.01c2.58,6.08,9.6,8.91,15.67,6.33s8.91-9.6,6.33-15.67Z"/>
      <path class="st0" d="M1584.6,1822.01l22-9.35"/>
      <path class="st0" d="M1509.26,1828.05l22-9.35"/>
      <circle class="st0" cx="1830.56" cy="1720.59" r="30.46"/>
      <circle class="st0" cx="1726.44" cy="1764.83" r="30.46"/>
      <circle class="st0" cx="1760" cy="1632.39" r="8.7"/>
      <path class="st0" d="M1778.5,1742.71l-11.91-28.03-34.23-13.82,21.83-37.64,26.23,17.22,16.02-6.81"/>
      <path class="st0" d="M1977.15,1582.66c23.76-10.28,50.45-11.62,75.12-3.76"/>
      <path class="st0" d="M1994.93,1609.59c-5.33,21.97-19.52,40.74-39.2,51.85"/>
      <path class="st0" d="M2027.6,1606.97c-2.94,25.98-15.26,49.99-34.66,67.51"/>
      <path class="st0" d="M2059.47,1617.36c-19.56-11.27-42.86-14.07-64.54-7.77-15.88-15.82-24.96-37.21-25.33-59.62"/>
      <path class="st0" d="M1940.18,1575.14c5.31,25.45,19.69,48.11,40.46,63.75"/>
      <circle class="st0" cx="1994.93" cy="1609.59" r="64.78"/>
      <path class="st0" d="M26.66,2682.91l-9.29,3.95c-8.55,3.63-18.43-.35-22.06-8.9-3.63-8.55.35-18.43,8.9-22.06l9.29-3.95"/>
      <path class="st0" d="M100.98,2651.33l9.29-3.95c8.55-3.63,12.54-13.51,8.9-22.06s-13.51-12.54-22.06-8.9l-9.29,3.95"/>
      <path class="st0" d="M48.48,2768.68l99.09-42.1"/>
      <path class="st0" d="M66.32,2707.44l6.16,14.49c1.45,3.41-.33,7.31-2.82,10.05-5.89,6.45-7.23,17.91-2.6,28.81"/>
      <path class="st0" d="M91.1,2696.91l6.16,14.49c1.45,3.41,5.49,4.83,9.19,4.94,8.73.24,17.91,7.23,22.54,18.13"/>
      <path class="st0" d="M82.56,2607.98l-74.32,31.57,18.42,43.35c8.72,20.52,32.42,30.09,52.95,21.37,20.52-8.72,30.09-32.42,21.37-52.95l-18.42-43.35Z"/>
      <path class="st0" d="M345.5,2583.7l35.6,16.38c4.48,1.86,6.61,7,4.75,11.48-.87,2.08-2.5,3.76-4.57,4.67l-118.06,50.16c-4.49,1.83-9.62-.32-11.46-4.81-.85-2.09-.87-4.43-.05-6.53l12.92-36.99-2.43,1.03c-4.49,1.83-9.62-.32-11.46-4.81-.85-2.09-.87-4.43-.05-6.53l12.92-36.99-1.62.69c-4.28,2.29-9.6.68-11.89-3.6-1.22-2.28-1.38-4.99-.42-7.4l17.57-48.51,47.12,21.03c4.49,1.84,6.64,6.96,4.81,11.46-.98,2.4-2.97,4.24-5.44,5.04l-1.62.69,35.6,16.38c4.48,1.86,6.61,7,4.75,11.48-.87,2.08-2.5,3.76-4.57,4.67l-2.43,1.03Z"/>
      <path class="st0" d="M332.55,2665.56l-10.31-24.26"/>
      <path class="st0" d="M490.6,2533.7l-5.56-13.09c-4.95-11.66-12.96-14.75-18.63-28.57-6.19-15.03-5.83-36.48,10.73-43.51,10.28-4.37,17.96,4.06,21.93,13.41,7.27,17.1,2.23,35.8,9.28,52.41l4.25,10.01c2.58,6.08-.25,13.09-6.33,15.67-6.08,2.58-13.09-.25-15.67-6.33Z"/>
      <path class="st0" d="M587.95,2518.32l-5.56-13.09c-4.95-11.66-1.63-19.57-7.63-33.25-6.52-14.89-22.21-29.52-38.77-22.48-10.28,4.37-9.54,15.74-5.57,25.09,7.27,17.1,24.23,26.46,31.28,43.07l4.25,10.01c2.58,6.08,9.6,8.91,15.67,6.33,6.08-2.58,8.91-9.6,6.33-15.67Z"/>
      <path class="st0" d="M558.94,2511.16l22-9.35"/>
      <path class="st0" d="M483.59,2517.2l22-9.35"/>
      <circle class="st0" cx="804.89" cy="2409.74" r="30.46"/>
      <circle class="st0" cx="700.78" cy="2453.98" r="30.46"/>
      <circle class="st0" cx="734.33" cy="2321.54" r="8.7"/>
      <path class="st0" d="M752.84,2431.86l-11.91-28.03-34.23-13.82,21.83-37.64,26.23,17.22,16.02-6.81"/>
      <path class="st0" d="M957.03,2275.79c23.76-10.28,50.45-11.62,75.12-3.76"/>
      <path class="st0" d="M974.8,2302.72c-5.33,21.97-19.52,40.74-39.2,51.85"/>
      <path class="st0" d="M1007.47,2300.1c-2.94,25.98-15.26,49.99-34.66,67.51"/>
      <path class="st0" d="M1039.34,2310.5c-19.56-11.27-42.86-14.07-64.54-7.77-15.88-15.82-24.96-37.21-25.33-59.62"/>
      <path class="st0" d="M920.05,2268.27c5.31,25.45,19.69,48.11,40.46,63.75"/>
      <circle class="st0" cx="974.8" cy="2302.72" r="64.78"/>
      <path class="st0" d="M1143,2209.33l-9.29,3.95c-8.55,3.63-18.43-.35-22.06-8.9-3.63-8.55.35-18.43,8.9-22.06l9.29-3.95"/>
      <path class="st0" d="M1217.32,2177.76l9.29-3.95c8.55-3.63,12.54-13.51,8.9-22.06-3.63-8.55-13.51-12.54-22.06-8.9l-9.29,3.95"/>
      <path class="st0" d="M1164.82,2295.11l99.09-42.1"/>
      <path class="st0" d="M1182.66,2233.86l6.16,14.49c1.45,3.41-.33,7.31-2.82,10.05-5.89,6.45-7.23,17.91-2.6,28.81"/>
      <path class="st0" d="M1207.44,2223.34l6.16,14.49c1.45,3.41,5.49,4.83,9.19,4.94,8.73.24,17.91,7.23,22.54,18.13"/>
      <path class="st0" d="M1198.9,2134.41l-74.32,31.57,18.42,43.35c8.72,20.52,32.42,30.09,52.95,21.37,20.52-8.72,30.09-32.42,21.37-52.95l-18.42-43.35Z"/>
      <path class="st0" d="M1461.84,2110.12l35.6,16.38c4.48,1.86,6.61,7,4.75,11.48-.87,2.08-2.5,3.76-4.57,4.67l-118.06,50.16c-4.49,1.83-9.62-.32-11.46-4.81-.85-2.09-.87-4.43-.05-6.53l12.92-36.99-2.43,1.03c-4.49,1.83-9.62-.32-11.46-4.81-.85-2.09-.87-4.43-.05-6.53l12.92-36.99-1.62.69c-4.28,2.29-9.6.68-11.89-3.6-1.22-2.28-1.38-4.99-.42-7.4l17.57-48.51,47.12,21.03c4.49,1.84,6.64,6.96,4.81,11.46-.98,2.4-2.97,4.24-5.44,5.04l-1.62.69,35.6,16.38c4.48,1.86,6.61,7,4.75,11.48-.87,2.08-2.5,3.76-4.57,4.67l-2.43,1.03Z"/>
      <path class="st0" d="M1448.89,2191.99l-10.31-24.26"/>
      <path class="st0" d="M1606.94,2060.13l-5.56-13.09c-4.95-11.66-12.96-14.75-18.63-28.57-6.19-15.03-5.83-36.48,10.73-43.51,10.28-4.37,17.96,4.06,21.93,13.41,7.27,17.1,2.23,35.8,9.28,52.41l4.25,10.01c2.58,6.08-.25,13.09-6.33,15.67s-13.09-.25-15.67-6.33Z"/>
      <path class="st0" d="M1704.29,2044.74l-5.56-13.09c-4.95-11.66-1.63-19.57-7.63-33.25-6.52-14.89-22.21-29.52-38.77-22.48-10.28,4.37-9.54,15.74-5.57,25.09,7.27,17.1,24.23,26.46,31.28,43.07l4.25,10.01c2.58,6.08,9.6,8.91,15.67,6.33,6.08-2.58,8.91-9.6,6.33-15.67Z"/>
      <path class="st0" d="M1675.28,2037.59l22-9.35"/>
      <path class="st0" d="M1599.93,2043.63l22-9.35"/>
      <circle class="st0" cx="1921.23" cy="1936.17" r="30.46"/>
      <circle class="st0" cx="1817.12" cy="1980.4" r="30.46"/>
      <circle class="st0" cx="1850.67" cy="1847.97" r="8.7"/>
      <path class="st0" d="M1869.18,1958.29l-11.91-28.03-34.23-13.82,21.83-37.64,26.23,17.22,16.02-6.81"/>
      <path class="st0" d="M2085.61,1825.17c-5.33,21.97-19.52,40.74-39.2,51.85"/>
      <path class="st0" d="M2030.85,1790.72c5.31,25.45,19.69,48.11,40.46,63.75"/>
      <circle class="st0" cx="2085.61" cy="1825.17" r="64.78"/>
      <path class="st0" d="M591.48,2769.44l-5.56-13.09c-4.95-11.66-12.96-14.75-18.63-28.57-6.19-15.03-5.83-36.48,10.73-43.51,10.28-4.37,17.96,4.06,21.93,13.41,7.27,17.1,2.23,35.8,9.28,52.41l4.25,10.01c2.58,6.08-.25,13.09-6.33,15.67s-13.09-.25-15.67-6.33Z"/>
      <path class="st0" d="M688.83,2754.05l-5.56-13.09c-4.95-11.66-1.63-19.57-7.63-33.25-6.52-14.89-22.21-29.52-38.77-22.48-10.28,4.37-9.54,15.74-5.57,25.09,7.27,17.1,24.23,26.46,31.28,43.07l4.25,10.01c2.58,6.08,9.6,8.91,15.67,6.33,6.08-2.58,8.91-9.6,6.33-15.67Z"/>
      <circle class="st0" cx="905.78" cy="2645.48" r="30.46"/>
      <circle class="st0" cx="801.66" cy="2689.71" r="30.46"/>
      <circle class="st0" cx="835.21" cy="2557.28" r="8.7"/>
      <path class="st0" d="M853.72,2667.59l-11.91-28.03-34.23-13.82,21.83-37.64,26.23,17.22,16.02-6.81"/>
      <path class="st0" d="M1057.91,2511.52c23.76-10.28,50.45-11.62,75.12-3.76"/>
      <path class="st0" d="M1075.69,2538.46c-5.33,21.97-19.52,40.74-39.2,51.85"/>
      <path class="st0" d="M1108.36,2535.84c-2.94,25.98-15.26,49.99-34.66,67.51"/>
      <path class="st0" d="M1140.22,2546.23c-19.56-11.27-42.86-14.07-64.54-7.77-15.88-15.82-24.96-37.21-25.33-59.62"/>
      <path class="st0" d="M1020.93,2504.01c5.31,25.45,19.69,48.11,40.46,63.75"/>
      <circle class="st0" cx="1075.69" cy="2538.46" r="64.78"/>
      <path class="st0" d="M1243.88,2445.07l-9.29,3.95c-8.55,3.63-18.43-.35-22.06-8.9-3.63-8.55.35-18.43,8.9-22.06l9.29-3.95"/>
      <path class="st0" d="M1318.2,2413.49l9.29-3.95c8.55-3.63,12.54-13.51,8.9-22.06-3.63-8.55-13.51-12.54-22.06-8.9l-9.29,3.95"/>
      <path class="st0" d="M1265.7,2530.84l99.09-42.1"/>
      <path class="st0" d="M1283.55,2469.59l6.16,14.49c1.45,3.41-.33,7.31-2.82,10.05-5.89,6.45-7.23,17.91-2.6,28.81"/>
      <path class="st0" d="M1308.32,2459.07l6.16,14.49c1.45,3.41,5.49,4.83,9.19,4.94,8.73.24,17.91,7.23,22.54,18.13"/>
      <path class="st0" d="M1299.78,2370.14l-74.32,31.57,18.42,43.35c8.72,20.52,32.42,30.09,52.95,21.37,20.52-8.72,30.09-32.42,21.37-52.95l-18.42-43.35Z"/>
      <path class="st0" d="M1562.72,2345.86l35.6,16.38c4.48,1.86,6.61,7,4.75,11.48-.87,2.08-2.5,3.76-4.57,4.67l-118.06,50.16c-4.49,1.83-9.62-.32-11.46-4.81-.85-2.09-.87-4.43-.05-6.53l12.92-36.99-2.43,1.03c-4.49,1.83-9.62-.32-11.46-4.81-.85-2.09-.87-4.43-.05-6.53l12.92-36.99-1.62.69c-4.28,2.29-9.6.68-11.89-3.6-1.22-2.28-1.38-4.99-.42-7.4l17.57-48.51,47.12,21.03c4.49,1.84,6.64,6.96,4.81,11.46-.98,2.4-2.97,4.24-5.44,5.04l-1.62.69,35.6,16.38c4.48,1.86,6.61,7,4.75,11.48-.87,2.08-2.5,3.76-4.57,4.67l-2.43,1.03Z"/>
      <path class="st0" d="M1549.78,2427.72l-10.31-24.26"/>
      <path class="st0" d="M1707.82,2295.86l-5.56-13.09c-4.95-11.66-12.96-14.75-18.63-28.57-6.19-15.03-5.83-36.48,10.73-43.51,10.28-4.37,17.96,4.06,21.93,13.41,7.27,17.1,2.23,35.8,9.28,52.41l4.25,10.01c2.58,6.08-.25,13.09-6.33,15.67-6.08,2.58-13.09-.25-15.67-6.33Z"/>
      <path class="st0" d="M1805.17,2280.47l-5.56-13.09c-4.95-11.66-1.63-19.57-7.63-33.25-6.52-14.89-22.21-29.52-38.77-22.48-10.28,4.37-9.54,15.74-5.57,25.09,7.27,17.1,24.23,26.46,31.28,43.07l4.25,10.01c2.58,6.08,9.6,8.91,15.67,6.33s8.91-9.6,6.33-15.67Z"/>
      <path class="st0" d="M1776.16,2273.32l22-9.35"/>
      <path class="st0" d="M1700.81,2279.36l22-9.35"/>
      <circle class="st0" cx="2022.12" cy="2171.9" r="30.46"/>
      <circle class="st0" cx="1918" cy="2216.13" r="30.46"/>
      <circle class="st0" cx="1951.55" cy="2083.7" r="8.7"/>
      <path class="st0" d="M1970.06,2194.02l-11.91-28.03-34.23-13.82,21.83-37.64,26.23,17.22,16.02-6.81"/>
      <path class="st0" d="M1151.99,2733.82c23.76-10.28,50.45-11.62,75.12-3.76"/>
      <path class="st0" d="M1234.3,2768.52c-19.56-11.27-42.86-14.07-64.54-7.77-15.88-15.82-24.96-37.21-25.33-59.62"/>
      <path class="st0" d="M1115.01,2726.3c5.31,25.45,19.69,48.11,40.46,63.75"/>
      <circle class="st0" cx="1169.76" cy="2760.75" r="64.78"/>
      <path class="st0" d="M1337.96,2667.36l-9.29,3.95c-8.55,3.63-18.43-.35-22.06-8.9-3.63-8.55.35-18.43,8.9-22.06l9.29-3.95"/>
      <path class="st0" d="M1412.28,2635.79l9.29-3.95c8.55-3.63,12.54-13.51,8.9-22.06s-13.51-12.54-22.06-8.9l-9.29,3.95"/>
      <path class="st0" d="M1359.78,2753.13l99.09-42.1"/>
      <path class="st0" d="M1377.62,2691.89l6.16,14.49c1.45,3.41-.33,7.31-2.82,10.05-5.89,6.45-7.23,17.91-2.6,28.81"/>
      <path class="st0" d="M1402.4,2681.36l6.16,14.49c1.45,3.41,5.49,4.83,9.19,4.94,8.73.24,17.91,7.23,22.54,18.13"/>
      <path class="st0" d="M1393.86,2592.43l-74.32,31.57,18.42,43.35c8.72,20.52,32.42,30.09,52.95,21.37,20.52-8.72,30.09-32.42,21.37-52.95l-18.42-43.35Z"/>
      <path class="st0" d="M1656.8,2568.15l35.6,16.38c4.48,1.86,6.61,7,4.75,11.48-.87,2.08-2.5,3.76-4.57,4.67l-118.06,50.16c-4.49,1.83-9.62-.32-11.46-4.81-.85-2.09-.87-4.43-.05-6.53l12.92-36.99-2.43,1.03c-4.49,1.83-9.62-.32-11.46-4.81-.85-2.09-.87-4.43-.05-6.53l12.92-36.99-1.62.69c-4.28,2.29-9.6.68-11.89-3.6-1.22-2.28-1.38-4.99-.42-7.4l17.57-48.51,47.12,21.03c4.49,1.84,6.64,6.96,4.81,11.46-.98,2.4-2.97,4.24-5.44,5.04l-1.62.69,35.6,16.38c4.48,1.86,6.61,7,4.75,11.48-.87,2.08-2.5,3.76-4.57,4.67l-2.43,1.03Z"/>
      <path class="st0" d="M1643.85,2650.02l-10.31-24.26"/>
      <path class="st0" d="M1801.9,2518.16l-5.56-13.09c-4.95-11.66-12.96-14.75-18.63-28.57-6.19-15.03-5.83-36.48,10.73-43.51,10.28-4.37,17.96,4.06,21.93,13.41,7.27,17.1,2.23,35.8,9.28,52.41l4.25,10.01c2.58,6.08-.25,13.09-6.33,15.67s-13.09-.25-15.67-6.33Z"/>
      <path class="st0" d="M1899.25,2502.77l-5.56-13.09c-4.95-11.66-1.63-19.57-7.63-33.25-6.52-14.89-22.21-29.52-38.77-22.48-10.28,4.37-9.54,15.74-5.57,25.09,7.27,17.1,24.23,26.46,31.28,43.07l4.25,10.01c2.58,6.08,9.6,8.91,15.67,6.33,6.08-2.58,8.91-9.6,6.33-15.67Z"/>
      <path class="st0" d="M1870.24,2495.62l22-9.35"/>
      <path class="st0" d="M1794.89,2501.66l22-9.35"/>
      <circle class="st0" cx="2012.08" cy="2438.43" r="30.46"/>
      <circle class="st0" cx="2045.63" cy="2306" r="8.7"/>
      <path class="st0" d="M2064.14,2416.31l-11.91-28.03-34.23-13.82,21.83-37.64,26.23,17.22,16.02-6.81"/>
      <path class="st0" d="M1757.68,2803.88l35.6,16.38c4.48,1.86,6.61,7,4.75,11.48-.87,2.08-2.5,3.76-4.57,4.67l-118.06,50.16c-4.49,1.83-9.62-.32-11.46-4.81-.85-2.09-.87-4.43-.05-6.53l12.92-36.99-2.43,1.03c-4.49,1.83-9.62-.32-11.46-4.81-.85-2.09-.87-4.43-.05-6.53l12.92-36.99-1.62.69c-4.28,2.29-9.6.68-11.89-3.6-1.22-2.28-1.38-4.99-.42-7.4l17.57-48.51,47.12,21.03c4.49,1.84,6.64,6.96,4.81,11.46-.98,2.4-2.97,4.24-5.44,5.04l-1.62.69,35.6,16.38c4.48,1.86,6.61,7,4.75,11.48-.87,2.08-2.5,3.76-4.57,4.67l-2.43,1.03Z"/>
      <path class="st0" d="M1902.78,2753.89l-5.56-13.09c-4.95-11.66-12.96-14.75-18.63-28.57-6.19-15.03-5.83-36.48,10.73-43.51,10.28-4.37,17.96,4.06,21.93,13.41,7.27,17.1,2.23,35.8,9.28,52.41l4.25,10.01c2.58,6.08-.25,13.09-6.33,15.67-6.08,2.58-13.09-.25-15.67-6.33Z"/>
      <path class="st0" d="M2000.13,2738.5l-5.56-13.09c-4.95-11.66-1.63-19.57-7.63-33.25-6.52-14.89-22.21-29.52-38.77-22.48-10.28,4.37-9.54,15.74-5.57,25.09,7.27,17.1,24.23,26.46,31.28,43.07l4.25,10.01c2.58,6.08,9.6,8.91,15.67,6.33,6.08-2.58,8.91-9.6,6.33-15.67Z"/>
      <path class="st0" d="M1971.12,2731.35l22-9.35"/>
      <path class="st0" d="M1895.77,2737.39l22-9.35"/>
    </g>
  </g>
</svg>