<?xml version="1.0" encoding="UTF-8"?>
<svg id="Layer_1" data-name="Layer 1" xmlns="http://www.w3.org/2000/svg" viewBox="0 0 1356.36 1351.8">
  <defs>
    <style>
      .cls-1 {
        fill: #127b88;
      }

      .cls-2 {
        fill: #83b36c;
      }

      .cls-3 {
        fill: #ffc200;
      }
    </style>
  </defs>
  <g id="Blue-Ring">
    <path class="cls-1" d="M765.66,6.42c-64.47-8.81-199.06-18.19-349,43-35.87,14.64-264.44,112.29-369,369-126.44,310.43,36.62,587.92,55,618,98.67-8,192.45-15.6,291.11-23.6-18.76-54.38-37.35-137.84-46.11-241.4-7.06-83.49-19.88-260.59,70-449,23.99-50.29,61.04-126.01,141-198,77.71-69.97,158.34-102.55,207-118h0Z"/>
  </g>
  <g id="Green-Ring">
    <path class="cls-2" d="M102.66,1036.42c23.37,34.68,198.63,285.71,518,313,267.65,22.87,530.59-120.44,672-366-47-35.33-94-70.67-141-106-36.96,39.39-173.92,175.75-397,201-173.85,19.68-307.41-38.61-360.89-65.6,0,0-291.11,23.6-291.11,23.6Z"/>
  </g>
  <g id="Orange-Ring">
    <path class="cls-3" d="M1292.66,983.42c12.46-26.53,152.93-339.61-28-646C1100.24,59,803.7,11.8,765.66,6.42c-47.86,15.22-135.1,49.89-218.41,128.57-88.18,83.28-127.93,174.27-145.04,222.07,84.46,8.06,248.57,35.21,418.45,145.35,198.01,128.37,293.48,297.92,331,375,34.2,25.18,68.54,50.85,103,77,12.74,9.67,25.4,19.33,38,29h0Z"/>
  </g>
</svg>